<svg width="16" height="16" viewBox="0 0 16 16" fill="none" xmlns="http://www.w3.org/2000/svg">
<g id="bx:edit">
<path id="Vector" d="M4.6665 11.342L7.6085 11.332L14.0298 4.972C14.2818 4.72 14.4205 4.38533 14.4205 4.02933C14.4205 3.67333 14.2818 3.33867 14.0298 3.08667L12.9725 2.02933C12.4685 1.52533 11.5892 1.528 11.0892 2.02733L4.6665 8.38867V11.342ZM12.0298 2.972L13.0892 4.02733L12.0245 5.082L10.9672 4.02533L12.0298 2.972ZM5.99984 8.94467L10.0198 4.96267L11.0772 6.02L7.05784 10.0007L5.99984 10.004V8.94467Z" fill="#FF8A00"/>
<path id="Vector_2" d="M3.33333 14H12.6667C13.402 14 14 13.402 14 12.6667V6.888L12.6667 8.22133V12.6667H5.43867C5.42133 12.6667 5.40333 12.6733 5.386 12.6733C5.364 12.6733 5.342 12.6673 5.31933 12.6667H3.33333V3.33333H7.898L9.23133 2H3.33333C2.598 2 2 2.598 2 3.33333V12.6667C2 13.402 2.598 14 3.33333 14Z" fill="#FF8A00"/>
</g>
</svg>
