<svg width="16" height="16" viewBox="0 0 16 16" fill="none" xmlns="http://www.w3.org/2000/svg">
<g id="material-symbols:cancel-outline">
<path id="Vector" d="M5.60016 11.3333L8.00016 8.93333L10.4002 11.3333L11.3335 10.4L8.9335 7.99999L11.3335 5.59999L10.4002 4.66666L8.00016 7.06666L5.60016 4.66666L4.66683 5.59999L7.06683 7.99999L4.66683 10.4L5.60016 11.3333ZM8.00016 14.6667C7.07794 14.6667 6.21127 14.4915 5.40016 14.1413C4.58905 13.7911 3.8835 13.3162 3.2835 12.7167C2.6835 12.1167 2.20861 11.4111 1.85883 10.6C1.50905 9.78888 1.33394 8.92222 1.3335 7.99999C1.3335 7.07777 1.50861 6.21111 1.85883 5.39999C2.20905 4.58888 2.68394 3.88333 3.2835 3.28333C3.8835 2.68333 4.58905 2.20844 5.40016 1.85866C6.21127 1.50888 7.07794 1.33377 8.00016 1.33333C8.92238 1.33333 9.78905 1.50844 10.6002 1.85866C11.4113 2.20888 12.1168 2.68377 12.7168 3.28333C13.3168 3.88333 13.7919 4.58888 14.1422 5.39999C14.4924 6.21111 14.6673 7.07777 14.6668 7.99999C14.6668 8.92222 14.4917 9.78888 14.1415 10.6C13.7913 11.4111 13.3164 12.1167 12.7168 12.7167C12.1168 13.3167 11.4113 13.7918 10.6002 14.142C9.78905 14.4922 8.92238 14.6671 8.00016 14.6667ZM8.00016 13.3333C9.48905 13.3333 10.7502 12.8167 11.7835 11.7833C12.8168 10.75 13.3335 9.48888 13.3335 7.99999C13.3335 6.51111 12.8168 5.24999 11.7835 4.21666C10.7502 3.18333 9.48905 2.66666 8.00016 2.66666C6.51127 2.66666 5.25016 3.18333 4.21683 4.21666C3.1835 5.24999 2.66683 6.51111 2.66683 7.99999C2.66683 9.48888 3.1835 10.75 4.21683 11.7833C5.25016 12.8167 6.51127 13.3333 8.00016 13.3333Z" fill="#FF8A00"/>
</g>
</svg>
