<svg width="48" height="48" viewBox="0 0 48 48" fill="none" xmlns="http://www.w3.org/2000/svg">
<path d="M24 0C26.2031 0 28.3281 0.28125 30.375 0.84375C32.4219 1.40625 34.3281 2.21875 36.0938 3.28125C37.8594 4.34375 39.4766 5.59375 40.9453 7.03125C42.4141 8.46875 43.6719 10.0859 44.7188 11.8828C45.7656 13.6797 46.5703 15.5938 47.1328 17.625C47.6953 19.6562 47.9844 21.7813 48 24C48 26.2031 47.7188 28.3281 47.1562 30.375C46.5938 32.4219 45.7812 34.3281 44.7188 36.0938C43.6563 37.8594 42.4062 39.4766 40.9688 40.9453C39.5313 42.4141 37.9141 43.6719 36.1172 44.7188C34.3203 45.7656 32.4062 46.5703 30.375 47.1328C28.3438 47.6953 26.2187 47.9844 24 48C21.7969 48 19.6719 47.7188 17.625 47.1562C15.5781 46.5938 13.6719 45.7812 11.9062 44.7188C10.1406 43.6563 8.52344 42.4062 7.05469 40.9688C5.58594 39.5313 4.32813 37.9141 3.28125 36.1172C2.23437 34.3203 1.42969 32.4062 0.867188 30.375C0.304688 28.3438 0.015625 26.2187 0 24C0 21.7969 0.28125 19.6719 0.84375 17.625C1.40625 15.5781 2.21875 13.6719 3.28125 11.9062C4.34375 10.1406 5.59375 8.52344 7.03125 7.05469C8.46875 5.58594 10.0859 4.32813 11.8828 3.28125C13.6797 2.23437 15.5938 1.42969 17.625 0.867188C19.6562 0.304688 21.7813 0.015625 24 0ZM38.1328 16.0547L34.9453 12.8672L19.5 28.3125L13.0547 21.8672L9.86719 25.0547L19.5 34.6875L38.1328 16.0547Z" fill="#FF8A00"/>
</svg>
