<svg width="75" height="60" viewBox="0 0 75 60" fill="none" xmlns="http://www.w3.org/2000/svg">
<g id="drivers_license" clip-path="url(#clip0_177_1946)">
<path id="Vector" d="M32.8125 42.1963C32.8125 43.6236 32.428 44.8368 31.6589 45.8359C30.8899 46.835 29.9683 47.3346 28.894 47.3346H13.2935C12.2192 47.3346 11.2976 46.835 10.5286 45.8359C9.75952 44.8368 9.375 43.6236 9.375 42.1963C9.375 40.7949 9.46655 39.4909 9.64966 38.2842C9.83276 37.0774 10.1318 35.9097 10.5469 34.7808C10.9619 33.6519 11.5845 32.7631 12.4146 32.1143C13.2446 31.4655 14.2334 31.1412 15.3809 31.1412C16.9434 32.802 18.8477 33.6325 21.0938 33.6325C23.3398 33.6325 25.2441 32.802 26.8066 31.1412C27.9541 31.1412 28.9429 31.4655 29.7729 32.1143C30.603 32.7631 31.2256 33.6519 31.6406 34.7808C32.0557 35.9097 32.3547 37.0774 32.5378 38.2842C32.7209 39.4909 32.8125 40.7949 32.8125 42.1963ZM28.125 24.9129C28.125 26.989 27.4414 28.7537 26.0742 30.2069C24.707 31.6602 23.0469 32.3868 21.0938 32.3868C19.1406 32.3868 17.4805 31.6602 16.1133 30.2069C14.7461 28.7537 14.0625 26.989 14.0625 24.9129C14.0625 22.8369 14.7461 21.0722 16.1133 19.6189C17.4805 18.1657 19.1406 17.4391 21.0938 17.4391C23.0469 17.4391 24.707 18.1657 26.0742 19.6189C27.4414 21.0722 28.125 22.8369 28.125 24.9129ZM65.625 41.1063V43.5976C65.625 43.9609 65.5151 44.2594 65.2954 44.4929C65.0757 44.7265 64.7949 44.8433 64.4531 44.8433H38.6719C38.3301 44.8433 38.0493 44.7265 37.8296 44.4929C37.6099 44.2594 37.5 43.9609 37.5 43.5976V41.1063C37.5 40.743 37.6099 40.4446 37.8296 40.211C38.0493 39.9775 38.3301 39.8607 38.6719 39.8607H64.4531C64.7949 39.8607 65.0757 39.9775 65.2954 40.211C65.5151 40.4446 65.625 40.743 65.625 41.1063ZM51.5625 31.1412V33.6325C51.5625 33.9958 51.4526 34.2942 51.2329 34.5278C51.0132 34.7613 50.7324 34.8781 50.3906 34.8781H38.6719C38.3301 34.8781 38.0493 34.7613 37.8296 34.5278C37.6099 34.2942 37.5 33.9958 37.5 33.6325V31.1412C37.5 30.7778 37.6099 30.4794 37.8296 30.2459C38.0493 30.0123 38.3301 29.8955 38.6719 29.8955H50.3906C50.7324 29.8955 51.0132 30.0123 51.2329 30.2459C51.4526 30.4794 51.5625 30.7778 51.5625 31.1412ZM65.625 31.1412V33.6325C65.625 33.9958 65.5151 34.2942 65.2954 34.5278C65.0757 34.7613 64.7949 34.8781 64.4531 34.8781H57.4219C57.0801 34.8781 56.7993 34.7613 56.5796 34.5278C56.3599 34.2942 56.25 33.9958 56.25 33.6325V31.1412C56.25 30.7778 56.3599 30.4794 56.5796 30.2459C56.7993 30.0123 57.0801 29.8955 57.4219 29.8955H64.4531C64.7949 29.8955 65.0757 30.0123 65.2954 30.2459C65.5151 30.4794 65.625 30.7778 65.625 31.1412ZM65.625 21.176V23.6673C65.625 24.0306 65.5151 24.329 65.2954 24.5626C65.0757 24.7962 64.7949 24.9129 64.4531 24.9129H38.6719C38.3301 24.9129 38.0493 24.7962 37.8296 24.5626C37.6099 24.329 37.5 24.0306 37.5 23.6673V21.176C37.5 20.8127 37.6099 20.5142 37.8296 20.2807C38.0493 20.0471 38.3301 19.9303 38.6719 19.9303H64.4531C64.7949 19.9303 65.0757 20.0471 65.2954 20.2807C65.5151 20.5142 65.625 20.8127 65.625 21.176ZM70.3125 53.5628V9.96517H4.6875V53.5628C4.6875 53.9002 4.80347 54.1921 5.0354 54.4386C5.26733 54.6852 5.54199 54.8084 5.85938 54.8084H69.1406C69.458 54.8084 69.7327 54.6852 69.9646 54.4386C70.1965 54.1921 70.3125 53.9002 70.3125 53.5628ZM75 6.22823V53.5628C75 55.2756 74.4263 56.7418 73.2788 57.9615C72.1313 59.1812 70.752 59.791 69.1406 59.791H5.85938C4.24805 59.791 2.86865 59.1812 1.72119 57.9615C0.57373 56.7418 0 55.2756 0 53.5628V6.22823C0 4.51547 0.57373 3.04924 1.72119 1.82954C2.86865 0.609848 4.24805 0 5.85938 0H69.1406C70.752 0 72.1313 0.609848 73.2788 1.82954C74.4263 3.04924 75 4.51547 75 6.22823Z" fill="#FF8A00"/>
</g>
<defs>
<clipPath id="clip0_177_1946">
<rect width="75" height="59.791" fill="white"/>
</clipPath>
</defs>
</svg>
