<svg width="77" height="75" viewBox="0 0 77 75" fill="none" xmlns="http://www.w3.org/2000/svg">
<g id="fluent-emoji-high-contrast:fuel-pump">
<g id="Group">
<path id="Vector" d="M37.1278 16.4062H46.7092C47.3799 16.4062 47.9069 16.9219 47.9069 17.5781C47.9069 18.2344 47.3799 18.75 46.7092 18.75H37.1278C36.4572 18.75 35.9302 18.2344 35.9302 17.5781C35.9302 16.9219 36.4572 16.4062 37.1278 16.4062Z" fill="#FF8A00"/>
<path id="Vector_2" d="M14.3721 70.3125H57.4882V67.9453C57.4882 66.6562 56.4343 65.625 55.1168 65.625H55.0929V39.8438C55.2007 39.7898 55.7277 39.818 56.0558 39.8344L56.2906 39.8438C56.9613 39.8438 57.4882 40.3594 57.4882 41.0156V57.4219C57.4882 59.3672 59.0931 60.9375 61.0812 60.9375C63.0694 60.9375 64.6743 59.3672 64.6743 57.4219V23.3438C64.6753 23.1822 64.6393 23.0226 64.5688 22.8765C64.4983 22.7305 64.3952 22.6018 64.2671 22.5L56.7217 16.6172C56.051 16.1016 55.0929 16.5937 55.0929 17.4609V9.35156C55.0929 6.77344 52.961 4.6875 50.3262 4.6875H21.5341C18.8993 4.6875 16.7674 6.77344 16.7674 9.35156V32.8125H55.0929V17.4609C55.0929 17.625 55.1168 17.7656 55.1887 17.9062L57.3924 22.6172C57.4643 22.7578 57.4882 22.9219 57.4882 23.0625V30.3281C57.4882 31.7109 58.5422 32.7891 59.8596 32.7891H62.2789V57.4219C62.2789 58.0781 61.7519 58.5938 61.0812 58.5938C60.4106 58.5938 59.8836 58.0781 59.8836 57.4219V41.0156C59.885 40.5405 59.7879 40.0699 59.5981 39.6326C59.4082 39.1952 59.1296 38.8001 58.7791 38.4712C58.4286 38.1423 58.0136 37.8864 57.559 37.7191C57.1045 37.5517 56.62 37.4764 56.1349 37.4977C55.8235 37.493 55.1695 37.4812 55.0929 37.5V35.1562H16.7674V65.625C15.45 65.625 14.3721 66.6797 14.3721 67.9688V70.3125ZM24.0253 28.125C22.66 28.125 21.5581 27.0469 21.5581 25.7109V14.0625H50.3022V25.7109C50.3022 27.0469 49.2003 28.125 47.835 28.125H24.0253ZM59.9075 29.0625V25.3828C59.9075 24.4453 61.0094 23.9766 61.6322 24.6328L61.9915 25.0078C62.1831 25.1953 62.2789 25.4766 62.2789 25.7578V29.2852C62.2763 28.9955 62.1642 28.7171 61.9641 28.5036C61.7641 28.2901 61.4904 28.1566 61.1957 28.129C60.901 28.1013 60.6063 28.1814 60.3685 28.3538C60.1306 28.5262 59.9664 28.7786 59.9075 29.0625Z" fill="#FF8A00"/>
</g>
</g>
</svg>
