<svg width="74" height="75" viewBox="0 0 74 75" fill="none" xmlns="http://www.w3.org/2000/svg">
<g id="mdi:human-male">
<path id="Vector" d="M36.7925 6.25C38.4188 6.25 39.9785 6.90848 41.1285 8.08058C42.2785 9.25268 42.9245 10.8424 42.9245 12.5C42.9245 14.1576 42.2785 15.7473 41.1285 16.9194C39.9785 18.0915 38.4188 18.75 36.7925 18.75C35.1661 18.75 33.6064 18.0915 32.4564 16.9194C31.3065 15.7473 30.6604 14.1576 30.6604 12.5C30.6604 10.8424 31.3065 9.25268 32.4564 8.08058C33.6064 6.90848 35.1661 6.25 36.7925 6.25ZM32.1934 21.875H41.3915C43.0179 21.875 44.5776 22.5335 45.7276 23.7056C46.8775 24.8777 47.5236 26.4674 47.5236 28.125V45.3125H42.9245V68.75H30.6604V45.3125H26.0613V28.125C26.0613 26.4674 26.7074 24.8777 27.8574 23.7056C29.0074 22.5335 30.5671 21.875 32.1934 21.875Z" fill="#FF8A00"/>
</g>
</svg>
