<svg width="65" height="65" viewBox="0 0 65 65" fill="none" xmlns="http://www.w3.org/2000/svg">
<path d="M32.6298 54.6C20.4098 54.6 10.5298 44.72 10.5298 32.5C10.5298 20.28 20.4098 10.4 32.6298 10.4C44.8498 10.4 54.7298 20.28 54.7298 32.5C54.7298 44.72 44.7198 54.6 32.6298 54.6ZM32.6298 13C21.8398 13 13.1298 21.71 13.1298 32.5C13.1298 43.29 21.8398 52 32.6298 52C43.4198 52 52.1298 43.29 52.1298 32.5C52.1298 21.71 43.2898 13 32.6298 13Z" fill="#FF8A00"/>
<path d="M19.8898 48.49L17.5498 47.45C18.1998 45.89 20.2798 44.98 22.4898 43.94C24.6998 42.9 27.4298 41.73 27.4298 40.3V38.35C26.6498 37.7 25.3498 36.27 25.0898 34.19C24.4398 33.54 23.3998 32.37 23.3998 30.81C23.3998 29.9 23.7898 29.12 24.0498 28.6C23.7898 27.56 23.5298 25.61 23.5298 24.05C23.5298 18.98 27.0398 15.6 32.6298 15.6C34.1898 15.6 36.1398 15.99 37.1798 17.16C39.6498 17.68 41.7298 20.54 41.7298 24.05C41.7298 26.26 41.3398 28.08 41.0798 28.99C41.3398 29.38 41.5998 30.03 41.5998 30.81C41.5998 32.5 40.6898 33.67 39.9098 34.19C39.6498 36.27 38.4798 37.57 37.6998 38.22V40.3C37.6998 41.47 40.0398 42.38 42.1198 43.16C44.5898 44.07 47.1898 45.11 48.0998 47.19L45.6298 48.1C45.2398 47.06 43.1598 46.28 41.2098 45.63C38.3498 44.59 35.0998 43.42 35.0998 40.43V37.05L35.7498 36.66C35.7498 36.66 37.3098 35.62 37.3098 33.54V32.63L38.0898 32.24C38.2198 32.24 38.8698 31.85 38.8698 30.81C38.8698 30.55 38.6098 30.16 38.4798 30.03L37.9598 29.51L38.2198 28.86C38.2198 28.86 38.8698 26.78 38.8698 24.18C38.8698 21.71 37.4398 19.89 36.2698 19.89H35.4898L35.0998 19.24C35.0998 18.72 34.1898 18.2 32.6298 18.2C28.5998 18.2 26.1298 20.41 26.1298 24.05C26.1298 25.74 26.7798 28.6 26.7798 28.6L26.9098 29.25L26.3898 29.9C26.2598 29.9 25.9998 30.29 25.9998 30.81C25.9998 31.46 26.7798 32.24 27.1698 32.5L27.6898 32.89V33.54C27.6898 35.49 29.3798 36.53 29.3798 36.66L30.0298 37.05V40.43C30.0298 43.55 26.6498 45.11 23.5298 46.41C22.0998 46.93 20.1498 47.84 19.8898 48.49Z" fill="#FF8A00"/>
</svg>
