<svg width="72" height="75" viewBox="0 0 72 75" fill="none" xmlns="http://www.w3.org/2000/svg">
<g id="maki:road-accident">
<path id="Vector" d="M59.9717 43.5L54.7361 32.5C54.2865 31.7319 53.6562 31.0985 52.9059 30.6606C52.1556 30.2227 51.3106 29.9952 50.4524 30H20.9425C20.0842 29.9952 19.2392 30.2227 18.4889 30.6606C17.7386 31.0985 17.1084 31.7319 16.6588 32.5L11.4232 43.5L5.52119 49.26C5.28134 49.4937 5.08993 49.7768 4.9589 50.0916C4.82787 50.4065 4.76004 50.7464 4.75964 51.09V72.5C4.75964 73.163 5.01037 73.7989 5.45668 74.2678C5.90298 74.7366 6.5083 75 7.13947 75H16.6588C17.6107 75 19.0386 74 19.0386 73V70H52.3562V72.5C52.3562 73.5 53.3082 75 54.2601 75H64.2554C64.8865 75 65.4919 74.7366 65.9382 74.2678C66.3845 73.7989 66.6352 73.163 66.6352 72.5V51.09C66.6348 50.7464 66.567 50.4065 66.4359 50.0916C66.3049 49.7768 66.1135 49.4937 65.8737 49.26L59.9717 43.5ZM21.4184 35H49.9764L54.7361 45H16.6588L21.4184 35ZM23.7983 58C23.7983 59 22.3704 60 21.4184 60H11.4232C10.4712 60 9.5193 58.5 9.5193 57.5V52C9.99527 50.5 10.9472 49.5 12.3751 50L21.8944 52C22.8463 52 23.7983 53.5 23.7983 54.5V58ZM61.8755 57.5C61.8755 58.5 60.9236 60 59.9717 60H49.9764C49.0245 60 47.5966 59 47.5966 58V54.5C47.5966 53.5 48.5485 52 49.5004 52L59.0197 50C60.4476 49.5 61.3996 50.5 61.8755 52V57.5ZM38.0773 20H33.3176L28.5579 0H42.8369L38.0773 20ZM5.23561 9L17.6107 1.5L22.8463 21.5L19.0386 23.5L5.23561 9ZM53.7841 1.5L66.1592 9L52.3562 24L48.0725 21.5L53.7841 1.5Z" fill="#FF8A00"/>
</g>
</svg>
